<svg xmlns="http://www.w3.org/2000/svg" xmlns:xlink="http://www.w3.org/1999/xlink" width="500" zoomAndPan="magnify" viewBox="0 0 375 374.999991" height="500" preserveAspectRatio="xMidYMid meet" version="1.0"><defs><g/><clipPath id="235b39601d"><path d="M 52 112 L 133 112 L 133 196 L 52 196 Z M 52 112 " clip-rule="nonzero"/></clipPath><clipPath id="5e9c170ed3"><path d="M 44.324219 173.777344 L 97.398438 94.679688 L 149.710938 129.785156 L 96.640625 208.878906 Z M 44.324219 173.777344 " clip-rule="nonzero"/></clipPath><clipPath id="a6e49df5fc"><path d="M 44.324219 173.777344 L 97.398438 94.679688 L 149.710938 129.785156 L 96.640625 208.878906 Z M 44.324219 173.777344 " clip-rule="nonzero"/></clipPath><clipPath id="05cb5563c4"><path d="M 54 114 L 131 114 L 131 193 L 54 193 Z M 54 114 " clip-rule="nonzero"/></clipPath><clipPath id="d9a3495428"><path d="M 44.324219 173.777344 L 97.398438 94.679688 L 149.710938 129.785156 L 96.640625 208.878906 Z M 44.324219 173.777344 " clip-rule="nonzero"/></clipPath><clipPath id="70be28ec40"><path d="M 44.324219 173.777344 L 97.398438 94.679688 L 149.710938 129.785156 L 96.640625 208.878906 Z M 44.324219 173.777344 " clip-rule="nonzero"/></clipPath><clipPath id="62be1d0ad0"><path d="M 61 174 L 78 174 L 78 181 L 61 181 Z M 61 174 " clip-rule="nonzero"/></clipPath><clipPath id="45c8fefe11"><path d="M 44.324219 173.777344 L 97.398438 94.679688 L 149.710938 129.785156 L 96.640625 208.878906 Z M 44.324219 173.777344 " clip-rule="nonzero"/></clipPath><clipPath id="b8014a4f87"><path d="M 44.324219 173.777344 L 97.398438 94.679688 L 149.710938 129.785156 L 96.640625 208.878906 Z M 44.324219 173.777344 " clip-rule="nonzero"/></clipPath><clipPath id="8dd2a2ff7b"><path d="M 84 132 L 99 132 L 99 150 L 84 150 Z M 84 132 " clip-rule="nonzero"/></clipPath><clipPath id="309a434a18"><path d="M 44.324219 173.777344 L 97.398438 94.679688 L 149.710938 129.785156 L 96.640625 208.878906 Z M 44.324219 173.777344 " clip-rule="nonzero"/></clipPath><clipPath id="db141eaca6"><path d="M 44.324219 173.777344 L 97.398438 94.679688 L 149.710938 129.785156 L 96.640625 208.878906 Z M 44.324219 173.777344 " clip-rule="nonzero"/></clipPath><clipPath id="ca7c74715c"><path d="M 84 128 L 129 128 L 129 167 L 84 167 Z M 84 128 " clip-rule="nonzero"/></clipPath><clipPath id="db7691ddef"><path d="M 44.324219 173.777344 L 97.398438 94.679688 L 149.710938 129.785156 L 96.640625 208.878906 Z M 44.324219 173.777344 " clip-rule="nonzero"/></clipPath><clipPath id="ea24cd6594"><path d="M 44.324219 173.777344 L 97.398438 94.679688 L 149.710938 129.785156 L 96.640625 208.878906 Z M 44.324219 173.777344 " clip-rule="nonzero"/></clipPath><clipPath id="f1a54de171"><path d="M 73 144 L 93 144 L 93 153 L 73 153 Z M 73 144 " clip-rule="nonzero"/></clipPath><clipPath id="9cd5c1b427"><path d="M 44.324219 173.777344 L 97.398438 94.679688 L 149.710938 129.785156 L 96.640625 208.878906 Z M 44.324219 173.777344 " clip-rule="nonzero"/></clipPath><clipPath id="fc5d4cb6e8"><path d="M 44.324219 173.777344 L 97.398438 94.679688 L 149.710938 129.785156 L 96.640625 208.878906 Z M 44.324219 173.777344 " clip-rule="nonzero"/></clipPath><clipPath id="1ae550531d"><path d="M 114 145 L 120 145 L 120 153 L 114 153 Z M 114 145 " clip-rule="nonzero"/></clipPath><clipPath id="697cca12b3"><path d="M 44.324219 173.777344 L 97.398438 94.679688 L 149.710938 129.785156 L 96.640625 208.878906 Z M 44.324219 173.777344 " clip-rule="nonzero"/></clipPath><clipPath id="7e11ab0bd6"><path d="M 44.324219 173.777344 L 97.398438 94.679688 L 149.710938 129.785156 L 96.640625 208.878906 Z M 44.324219 173.777344 " clip-rule="nonzero"/></clipPath><clipPath id="aa6a3a773c"><path d="M 94 133 L 121 133 L 121 157 L 94 157 Z M 94 133 " clip-rule="nonzero"/></clipPath><clipPath id="86c281f7aa"><path d="M 44.324219 173.777344 L 97.398438 94.679688 L 149.710938 129.785156 L 96.640625 208.878906 Z M 44.324219 173.777344 " clip-rule="nonzero"/></clipPath><clipPath id="3e46671d8a"><path d="M 44.324219 173.777344 L 97.398438 94.679688 L 149.710938 129.785156 L 96.640625 208.878906 Z M 44.324219 173.777344 " clip-rule="nonzero"/></clipPath><clipPath id="adbfaf12b7"><path d="M 84 154 L 103 154 L 103 168 L 84 168 Z M 84 154 " clip-rule="nonzero"/></clipPath><clipPath id="50aefb1f45"><path d="M 44.324219 173.777344 L 97.398438 94.679688 L 149.710938 129.785156 L 96.640625 208.878906 Z M 44.324219 173.777344 " clip-rule="nonzero"/></clipPath><clipPath id="8a477d39bd"><path d="M 44.324219 173.777344 L 97.398438 94.679688 L 149.710938 129.785156 L 96.640625 208.878906 Z M 44.324219 173.777344 " clip-rule="nonzero"/></clipPath><clipPath id="6309c0a9c0"><path d="M 70 175 L 79 175 L 79 181 L 70 181 Z M 70 175 " clip-rule="nonzero"/></clipPath><clipPath id="922b518d5a"><path d="M 44.324219 173.777344 L 97.398438 94.679688 L 149.710938 129.785156 L 96.640625 208.878906 Z M 44.324219 173.777344 " clip-rule="nonzero"/></clipPath><clipPath id="c157a60a85"><path d="M 44.324219 173.777344 L 97.398438 94.679688 L 149.710938 129.785156 L 96.640625 208.878906 Z M 44.324219 173.777344 " clip-rule="nonzero"/></clipPath></defs><g fill="#ffffff" fill-opacity="1"><g transform="translate(84.860256, 216.66933)"><g><path d="M 32.75 0.875 C 26.9375 0.875 21.734375 -0.285156 17.140625 -2.609375 C 12.554688 -4.941406 8.988281 -8.171875 6.4375 -12.296875 C 3.882812 -16.429688 2.609375 -21.113281 2.609375 -26.34375 C 2.609375 -31.582031 3.882812 -36.25 6.4375 -40.34375 C 8.988281 -44.445312 12.554688 -47.644531 17.140625 -49.9375 C 21.734375 -52.226562 26.9375 -53.375 32.75 -53.375 C 38.6875 -53.375 43.816406 -52.097656 48.140625 -49.546875 C 52.472656 -46.992188 55.539062 -43.457031 57.34375 -38.9375 L 43.109375 -31.671875 C 40.722656 -36.390625 37.234375 -38.75 32.640625 -38.75 C 29.347656 -38.75 26.617188 -37.648438 24.453125 -35.453125 C 22.296875 -33.253906 21.21875 -30.21875 21.21875 -26.34375 C 21.21875 -22.40625 22.296875 -19.320312 24.453125 -17.09375 C 26.617188 -14.863281 29.347656 -13.75 32.640625 -13.75 C 37.234375 -13.75 40.722656 -16.109375 43.109375 -20.828125 L 57.34375 -13.5625 C 55.539062 -9.039062 52.472656 -5.503906 48.140625 -2.953125 C 43.816406 -0.398438 38.6875 0.875 32.75 0.875 Z M 32.75 0.875 "/></g></g></g><g fill="#ffffff" fill-opacity="1"><g transform="translate(135.903344, 216.66933)"><g><path d="M 40.109375 -53.375 C 46.628906 -53.375 51.875 -51.4375 55.84375 -47.5625 C 59.820312 -43.6875 61.8125 -37.84375 61.8125 -30.03125 L 61.8125 0 L 43.40625 0 L 43.40625 -27.03125 C 43.40625 -34.195312 40.53125 -37.78125 34.78125 -37.78125 C 31.613281 -37.78125 29.078125 -36.742188 27.171875 -34.671875 C 25.265625 -32.609375 24.3125 -29.507812 24.3125 -25.375 L 24.3125 0 L 5.90625 0 L 5.90625 -71.875 L 24.3125 -71.875 L 24.3125 -47.65625 C 26.3125 -49.53125 28.664062 -50.953125 31.375 -51.921875 C 34.09375 -52.890625 37.003906 -53.375 40.109375 -53.375 Z M 40.109375 -53.375 "/></g></g></g><g fill="#ffffff" fill-opacity="1"><g transform="translate(195.954292, 216.66933)"><g><path d="M 59.578125 -26.15625 C 59.578125 -26.03125 59.476562 -24.515625 59.28125 -21.609375 L 21.125 -21.609375 C 21.894531 -18.890625 23.394531 -16.800781 25.625 -15.34375 C 27.851562 -13.894531 30.644531 -13.171875 34 -13.171875 C 36.519531 -13.171875 38.695312 -13.523438 40.53125 -14.234375 C 42.375 -14.953125 44.234375 -16.117188 46.109375 -17.734375 L 55.796875 -7.65625 C 50.691406 -1.96875 43.234375 0.875 33.421875 0.875 C 27.285156 0.875 21.890625 -0.285156 17.234375 -2.609375 C 12.585938 -4.941406 8.988281 -8.171875 6.4375 -12.296875 C 3.882812 -16.429688 2.609375 -21.113281 2.609375 -26.34375 C 2.609375 -31.507812 3.851562 -36.144531 6.34375 -40.25 C 8.832031 -44.351562 12.269531 -47.566406 16.65625 -49.890625 C 21.050781 -52.210938 25.992188 -53.375 31.484375 -53.375 C 36.710938 -53.375 41.457031 -52.289062 45.71875 -50.125 C 49.988281 -47.96875 53.363281 -44.835938 55.84375 -40.734375 C 58.332031 -36.628906 59.578125 -31.769531 59.578125 -26.15625 Z M 31.578125 -40.296875 C 28.734375 -40.296875 26.359375 -39.488281 24.453125 -37.875 C 22.554688 -36.257812 21.347656 -34.066406 20.828125 -31.296875 L 42.328125 -31.296875 C 41.816406 -34.066406 40.609375 -36.257812 38.703125 -37.875 C 36.796875 -39.488281 34.421875 -40.296875 31.578125 -40.296875 Z M 31.578125 -40.296875 "/></g></g></g><g fill="#ffffff" fill-opacity="1"><g transform="translate(250.774869, 216.66933)"><g><path d="M 25.96875 -50.5625 L 38.453125 -50.5625 L 38.453125 -36.8125 L 26.453125 -36.8125 L 26.453125 0 L 8.046875 0 L 8.046875 -36.8125 L 0.390625 -36.8125 L 0.390625 -50.5625 L 8.046875 -50.5625 L 8.046875 -51.921875 C 8.046875 -58.316406 9.960938 -63.382812 13.796875 -67.125 C 17.640625 -70.875 23.019531 -72.75 29.9375 -72.75 C 32.257812 -72.75 34.519531 -72.519531 36.71875 -72.0625 C 38.914062 -71.613281 40.722656 -70.941406 42.140625 -70.046875 L 37.59375 -57.0625 C 35.78125 -58.09375 33.9375 -58.609375 32.0625 -58.609375 C 30.125 -58.609375 28.625 -58.023438 27.5625 -56.859375 C 26.5 -55.703125 25.96875 -53.992188 25.96875 -51.734375 Z M 25.96875 -50.5625 "/></g></g></g><g clip-path="url(#235b39601d)"><g clip-path="url(#5e9c170ed3)"><g clip-path="url(#a6e49df5fc)"><path fill="#ffffff" d="M 126.277344 162.382812 C 116.257812 166.527344 105.953125 173.160156 97.261719 181.054688 C 92.9375 184.984375 89.121094 189.121094 85.910156 193.355469 L 84.273438 195.515625 L 77.457031 180.242188 C 74.4375 182.265625 67.8125 185.789062 60.746094 183.570312 C 57.320312 182.496094 55.042969 180.761719 53.777344 178.269531 C 52.121094 174.996094 49.894531 165.519531 58.894531 158.023438 C 65.472656 152.050781 75.898438 150.660156 78.066406 150.433594 C 78.777344 149.988281 79.421875 149.503906 80.027344 148.949219 C 82.460938 146.742188 83.910156 143.769531 85.589844 140.328125 C 87.984375 135.414062 90.96875 129.296875 98.054688 122.859375 C 98.929688 122.066406 99.855469 121.273438 100.816406 120.507812 C 109.195312 113.789062 115.894531 111.363281 121.292969 113.09375 C 123.6875 113.859375 129.894531 118.074219 132.113281 126.0625 C 133.382812 130.289062 132.035156 134.777344 129.628906 139.273438 C 128.496094 141.398438 126.308594 144.6875 122.328125 148.304688 C 121.238281 149.292969 120.257812 150.089844 119.515625 150.65625 L 128.238281 161.570312 Z M 126.277344 162.382812 " fill-opacity="1" fill-rule="nonzero"/></g></g></g><g clip-path="url(#05cb5563c4)"><g clip-path="url(#d9a3495428)"><g clip-path="url(#70be28ec40)"><path fill="#ffffff" d="M 129.792969 126.570312 C 131.175781 131.164062 129.953125 135.515625 127.816406 139.210938 C 123.980469 145.828125 117.207031 150.332031 117.207031 150.332031 L 125.648438 160.890625 C 121.769531 162.496094 117.859375 164.457031 114.019531 166.71875 C 102.816406 173.300781 92.1875 182.386719 84.625 192.367188 L 78.097656 177.75 C 78.097656 177.75 69.878906 184.753906 61.207031 182.03125 C 55.695312 180.304688 52.472656 174.527344 55.261719 165.65625 C 59.375 153.890625 78.605469 152.003906 78.605469 152.003906 C 88.183594 146.320312 85.632812 134.753906 101.832031 121.773438 C 117.976562 108.832031 125.933594 113.746094 129.792969 126.570312 Z M 129.792969 126.570312 " fill-opacity="1" fill-rule="nonzero"/></g></g></g><g clip-path="url(#62be1d0ad0)"><g clip-path="url(#45c8fefe11)"><g clip-path="url(#b8014a4f87)"><path fill="#ffffff" d="M 77.101562 178.007812 C 77.101562 178.007812 70.550781 181.285156 66.679688 180.878906 C 62.71875 180.46875 61.160156 178.660156 61.925781 178.59375 C 62.691406 178.527344 66.460938 179.714844 68.167969 177.953125 C 69.875 176.195312 65.453125 174.96875 67.550781 174.320312 C 69.648438 173.675781 72.675781 174.277344 74.597656 175.253906 C 76.519531 176.230469 77.101562 178.007812 77.101562 178.007812 Z M 77.101562 178.007812 " fill-opacity="1" fill-rule="nonzero"/></g></g></g><g clip-path="url(#8dd2a2ff7b)"><g clip-path="url(#309a434a18)"><g clip-path="url(#db141eaca6)"><path fill="#ffffff" d="M 84.0625 149.082031 C 84.0625 149.082031 88.28125 146.160156 91.136719 140.496094 C 93.992188 134.835938 96.640625 131.328125 97.84375 132.652344 C 99.042969 133.972656 99.128906 137.398438 94.703125 142.519531 C 90.273438 147.636719 84.0625 149.082031 84.0625 149.082031 Z M 84.0625 149.082031 " fill-opacity="1" fill-rule="nonzero"/></g></g></g><g clip-path="url(#ca7c74715c)"><g clip-path="url(#db7691ddef)"><g clip-path="url(#ea24cd6594)"><path fill="#ffffff" d="M 128.644531 133.542969 C 128.628906 133.667969 128.179688 137.027344 127.816406 139.210938 C 123.980469 145.828125 117.207031 150.332031 117.207031 150.332031 L 125.648438 160.894531 C 121.769531 162.496094 117.859375 164.457031 114.015625 166.71875 C 114.640625 165.433594 114.804688 163.804688 113.882812 161.824219 C 111.140625 155.941406 108.175781 153.320312 108.175781 153.320312 C 108.175781 153.320312 104.78125 161.125 100.046875 164.246094 C 95.347656 167.34375 85.078125 166.199219 84.917969 166.183594 C 85.003906 166.132812 89.804688 163.507812 92.03125 161.191406 C 94.277344 158.855469 94.277344 158.855469 94.277344 158.855469 C 90.601562 157.4375 87.203125 155.992188 89.253906 153.96875 C 89.253906 153.96875 100.867188 155.53125 110.097656 143.894531 C 119.328125 132.261719 115.996094 127.3125 120.410156 128.324219 C 124.824219 129.332031 122.386719 140.113281 124.898438 138.714844 C 127.371094 137.339844 128.601562 133.671875 128.644531 133.542969 Z M 128.644531 133.542969 " fill-opacity="1" fill-rule="nonzero"/></g></g></g><g clip-path="url(#f1a54de171)"><g clip-path="url(#9cd5c1b427)"><g clip-path="url(#fc5d4cb6e8)"><path fill="#ffffff" d="M 73.105469 152.8125 C 73.105469 152.8125 79.558594 152.574219 84.621094 150.671875 C 89.683594 148.765625 92.039062 144.53125 92.039062 144.53125 C 92.039062 144.53125 87.546875 147.714844 84.0625 149.082031 C 80.582031 150.449219 79.796875 150.5625 79.796875 150.5625 Z M 73.105469 152.8125 " fill-opacity="1" fill-rule="nonzero"/></g></g></g><g clip-path="url(#1ae550531d)"><g clip-path="url(#697cca12b3)"><g clip-path="url(#7e11ab0bd6)"><path fill="#ffffff" d="M 114.5625 145.757812 C 114.6875 146.800781 117.195312 150.25 119.171875 152.777344 L 119.515625 150.660156 C 118.027344 148.886719 116.800781 147.285156 115.785156 145.828125 Z M 114.5625 145.757812 " fill-opacity="1" fill-rule="nonzero"/></g></g></g><g clip-path="url(#aa6a3a773c)"><g clip-path="url(#86c281f7aa)"><g clip-path="url(#3e46671d8a)"><path fill="#ffffff" d="M 120.941406 133.582031 C 120.941406 133.582031 121.1875 140.277344 111.933594 147.699219 C 102.683594 155.121094 94.824219 156.328125 94.824219 156.328125 C 94.824219 156.328125 102.992188 156.601562 111.945312 150.359375 C 117.480469 146.3125 116.011719 147.375 118.71875 143.6875 C 121.425781 140 120.941406 133.582031 120.941406 133.582031 Z M 120.941406 133.582031 " fill-opacity="1" fill-rule="nonzero"/></g></g></g><g clip-path="url(#adbfaf12b7)"><g clip-path="url(#50aefb1f45)"><g clip-path="url(#8a477d39bd)"><path fill="#ffffff" d="M 99.765625 155.328125 C 97.867188 160.699219 91.371094 166.179688 84.375 167.589844 C 84.375 167.589844 87.128906 168.503906 93.222656 165.40625 C 99.316406 162.3125 102.820312 154.246094 102.820312 154.246094 Z M 99.765625 155.328125 " fill-opacity="1" fill-rule="nonzero"/></g></g></g><g clip-path="url(#6309c0a9c0)"><g clip-path="url(#922b518d5a)"><g clip-path="url(#c157a60a85)"><path fill="#ffffff" d="M 78.777344 179.722656 C 78.703125 179.25 78.394531 177.734375 77.410156 176.648438 C 76.421875 175.566406 70.832031 175.070312 70.832031 175.070312 C 70.832031 175.070312 74.519531 176.398438 75.699219 177.304688 C 76.875 178.210938 77.457031 180.242188 77.457031 180.242188 Z M 78.777344 179.722656 " fill-opacity="1" fill-rule="nonzero"/></g></g></g></svg>